<?xml version="1.0" standalone="no"?>
<!DOCTYPE svg PUBLIC "-//W3C//DTD SVG 20010904//EN"
 "http://www.w3.org/TR/2001/REC-SVG-20010904/DTD/svg10.dtd">
<svg version="1.0" xmlns="http://www.w3.org/2000/svg"
 width="1376.000000pt" height="1376.000000pt" viewBox="0 0 1376.000000 1376.000000"
 preserveAspectRatio="xMidYMid meet">
<metadata>
Created by potrace 1.14, written by Peter Selinger 2001-2017
</metadata>
<g transform="translate(0.000000,1376.000000) scale(0.100000,-0.100000)"
fill="#000000" stroke="none">
<path d="M1147 10554 c-1 -1 -42 -4 -92 -7 -94 -6 -143 -12 -185 -22 -48 -12
-55 -13 -55 -15 0 -1 -7 -3 -15 -5 -73 -15 -240 -89 -316 -140 -183 -121 -350
-263 -463 -394 -12 -13 -19 -26 -17 -28 2 -3 37 -6 77 -9 41 -2 83 -6 94 -8
88 -19 151 -39 220 -71 56 -27 169 -98 192 -121 8 -8 18 -14 23 -14 12 0 208
-196 255 -255 22 -27 43 -52 46 -55 22 -18 213 -299 244 -360 10 -19 21 -37
24 -40 3 -3 11 -14 17 -25 95 -173 190 -362 249 -495 20 -47 48 -108 61 -137
13 -28 24 -54 24 -57 0 -4 9 -28 21 -54 30 -67 33 -74 82 -202 38 -100 57
-151 62 -170 1 -3 7 -18 14 -35 6 -16 15 -41 20 -55 5 -14 13 -34 17 -45 4
-11 8 -22 9 -25 4 -16 38 -118 45 -135 14 -34 51 -144 55 -163 2 -9 9 -30 15
-47 6 -16 13 -38 15 -48 3 -11 18 -62 36 -115 17 -54 33 -104 34 -112 2 -8 14
-46 25 -85 12 -38 24 -79 27 -90 3 -11 16 -57 30 -103 13 -46 27 -95 29 -109
3 -15 7 -30 10 -35 3 -4 7 -16 9 -25 2 -10 11 -43 20 -73 9 -30 18 -62 20 -70
31 -110 128 -440 144 -490 22 -64 64 -201 67 -215 4 -17 121 -368 137 -410 9
-22 34 -92 57 -155 22 -63 44 -122 47 -130 3 -8 7 -17 8 -20 1 -3 5 -14 10
-25 4 -11 30 -76 58 -145 27 -69 61 -150 74 -180 14 -30 34 -77 46 -105 32
-71 201 -410 238 -475 50 -88 140 -230 189 -298 25 -35 50 -71 55 -80 6 -8 17
-23 25 -32 8 -9 26 -32 40 -50 23 -32 226 -238 264 -268 82 -65 251 -162 307
-175 13 -3 56 -14 95 -25 68 -18 110 -19 816 -20 458 0 764 4 794 10 70 14
198 78 274 136 120 92 260 252 381 437 64 98 85 134 155 269 l61 119 -32 81
c-17 45 -46 119 -64 166 -17 47 -38 99 -46 115 -7 17 -26 63 -41 102 -28 74
-39 88 -41 53 -2 -18 -7 -32 -56 -140 -54 -119 -150 -236 -244 -297 -128 -82
-262 -100 -367 -49 -68 33 -181 141 -233 223 -9 15 -20 30 -23 33 -12 12 -80
129 -80 139 0 6 -3 11 -7 11 -5 0 -17 20 -28 45 -11 25 -23 45 -27 45 -5 0 -8
5 -8 12 0 6 -17 48 -39 92 -90 188 -191 446 -291 744 -44 130 -81 238 -81 239
-1 2 -2 6 -3 11 -2 4 -9 27 -16 52 -7 25 -14 47 -15 50 -2 11 -38 126 -46 150
-13 37 -134 461 -154 540 -3 8 -14 49 -25 90 -12 41 -30 107 -40 145 -31 120
-145 525 -179 640 -12 39 -23 77 -25 86 -2 8 -23 78 -46 155 -22 76 -43 146
-45 154 -3 8 -12 40 -21 70 -8 30 -17 60 -18 65 -2 6 -6 17 -9 25 -8 18 -60
181 -63 195 -10 52 -183 525 -243 665 -8 19 -15 37 -16 40 -17 58 -211 459
-247 513 -11 15 -16 27 -12 27 4 0 0 8 -8 18 -8 9 -30 44 -48 77 -134 240
-361 525 -540 675 -30 25 -62 53 -72 63 -10 9 -20 17 -22 17 -2 0 -40 25 -85
55 -45 30 -88 55 -96 55 -8 0 -15 4 -15 9 0 5 -10 13 -22 17 -12 3 -37 13 -57
22 -20 9 -38 16 -41 17 -3 0 -11 4 -17 8 -7 5 -13 6 -13 2 0 -3 -8 -1 -18 4
-53 28 -223 49 -412 51 -291 3 -921 5 -923 4z"/>
<path d="M5146 10553 c-1 -1 -67 -3 -146 -4 -208 -3 -349 -35 -525 -119 -67
-32 -197 -111 -215 -130 -3 -3 -30 -23 -60 -45 -30 -22 -64 -48 -74 -57 -11
-10 -24 -18 -28 -18 -5 0 -7 -4 -3 -9 3 -5 -3 -12 -12 -15 -10 -3 -54 -43 -98
-89 -92 -95 -117 -125 -107 -130 4 -1 37 -3 74 -2 38 0 68 -2 68 -5 0 -3 10
-5 23 -6 49 -2 138 -30 216 -66 60 -28 193 -111 231 -143 66 -57 227 -224 276
-285 92 -115 144 -188 144 -200 0 -5 3 -10 8 -10 4 0 14 -12 23 -28 9 -15 46
-76 82 -135 37 -60 67 -111 67 -114 0 -3 14 -28 30 -55 17 -26 30 -55 30 -62
0 -8 4 -16 8 -18 7 -2 133 -250 137 -268 1 -6 25 -59 53 -120 11 -25 44 -101
72 -170 28 -69 55 -134 59 -145 5 -11 23 -58 41 -105 18 -47 36 -94 40 -105
65 -157 232 -678 357 -1115 9 -30 24 -82 35 -115 10 -33 21 -72 23 -87 3 -15
9 -38 15 -52 5 -15 7 -26 4 -26 -4 0 -2 -6 3 -12 9 -12 22 -50 29 -88 1 -8 17
-62 34 -120 18 -58 33 -109 35 -115 1 -5 4 -17 7 -25 3 -8 11 -35 18 -60 6
-25 16 -53 21 -62 5 -10 9 -23 9 -30 0 -13 114 -377 130 -413 4 -11 24 -67 43
-125 20 -58 50 -143 67 -190 18 -47 35 -96 40 -110 11 -35 152 -384 180 -445
12 -27 29 -66 37 -85 9 -19 40 -85 70 -147 30 -62 55 -116 56 -120 0 -4 13
-28 29 -52 15 -25 28 -50 28 -57 0 -6 7 -17 15 -24 8 -7 12 -16 9 -21 -3 -5 0
-9 5 -9 6 0 11 -4 11 -9 0 -13 102 -185 112 -189 4 -2 8 -8 8 -14 0 -10 149
-228 174 -254 6 -7 27 -31 46 -55 44 -56 183 -195 235 -236 82 -65 135 -103
135 -96 0 3 8 0 18 -8 34 -28 169 -89 199 -91 5 0 15 -4 23 -8 8 -4 38 -12 65
-16 63 -11 1568 -11 1615 -1 79 18 260 108 260 129 0 4 6 8 13 8 7 0 45 30 84
68 59 56 98 102 212 248 73 94 253 450 326 644 15 41 33 89 40 105 16 38 114
333 119 360 2 11 11 40 20 65 16 48 54 181 61 215 4 17 13 57 21 88 1 4 2 8 4
10 2 2 6 19 14 57 6 27 33 140 43 180 3 14 7 30 9 35 1 6 5 22 8 38 3 15 8 37
11 50 36 167 63 312 59 319 -3 4 -1 8 4 8 5 0 9 6 9 13 0 12 10 76 17 114 3
12 8 43 12 70 5 26 9 50 9 53 2 9 17 95 21 123 2 15 6 39 8 55 3 15 7 47 11
72 4 25 8 57 11 71 6 39 13 98 20 159 3 30 8 58 10 62 3 4 -8 10 -23 14 -15 3
-35 8 -43 11 -60 21 -186 50 -192 45 -4 -4 -9 -20 -12 -37 -7 -38 -20 -101
-40 -190 -24 -104 -27 -118 -31 -140 -3 -11 -14 -58 -26 -105 -11 -47 -22 -94
-24 -104 -3 -10 -9 -33 -14 -50 -6 -17 -13 -42 -15 -56 -3 -14 -13 -52 -22
-85 -9 -33 -18 -68 -20 -77 -6 -25 -11 -43 -34 -123 -11 -38 -23 -81 -26 -94
-3 -13 -9 -32 -15 -43 -5 -10 -7 -18 -4 -18 3 0 1 -8 -4 -18 -6 -11 -12 -30
-15 -43 -3 -13 -15 -51 -26 -84 -11 -33 -22 -67 -24 -75 -2 -8 -6 -22 -9 -30
-3 -8 -13 -37 -22 -65 -23 -67 -61 -173 -76 -210 -7 -16 -13 -34 -14 -40 -2
-5 -11 -28 -20 -50 -10 -22 -19 -42 -20 -45 -1 -3 -9 -22 -18 -44 -9 -21 -17
-40 -17 -42 0 -9 -113 -240 -120 -244 -4 -3 -10 -15 -14 -27 -4 -13 -14 -30
-23 -38 -8 -9 -16 -21 -17 -28 -3 -20 -110 -159 -164 -213 -50 -49 -117 -91
-158 -99 -10 -2 -19 -4 -19 -6 0 -1 -24 -2 -52 -3 -29 -1 -53 2 -53 6 0 4 -7
8 -15 8 -31 0 -95 41 -152 97 -55 55 -123 131 -123 138 0 2 -17 30 -38 62 -64
96 -152 259 -152 280 0 7 -4 13 -10 13 -5 0 -10 4 -10 10 0 5 -15 42 -34 82
-18 40 -43 98 -56 128 -12 30 -28 69 -35 85 -38 92 -65 161 -65 170 0 6 -6 21
-13 35 -8 14 -16 34 -20 45 -3 11 -22 65 -42 120 -19 55 -38 111 -41 124 -3
14 -8 29 -12 35 -4 6 -7 14 -8 19 -1 4 -2 8 -4 10 -1 1 -3 9 -5 17 -1 8 -22
71 -44 140 -23 69 -43 132 -45 140 -2 8 -6 22 -9 30 -3 8 -24 78 -47 155 -22
77 -50 172 -61 210 -11 39 -26 90 -34 115 -7 25 -17 61 -21 80 -10 43 -9 42
-17 60 -4 8 -8 26 -11 40 -3 14 -12 50 -22 80 -9 30 -18 62 -20 70 -1 8 -12
49 -24 90 -12 41 -25 91 -30 110 -5 19 -18 69 -30 110 -11 41 -23 86 -26 99
-3 13 -11 39 -19 59 -8 19 -15 44 -15 56 0 12 -5 27 -12 34 -7 7 -9 12 -6 12
3 0 -1 21 -9 48 -26 81 -49 162 -57 202 -3 11 -8 25 -11 30 -3 5 -8 18 -10 29
-10 52 -144 482 -210 676 -42 121 -77 225 -79 230 -1 6 -8 23 -14 38 -7 16
-12 31 -12 34 0 3 -6 19 -14 36 -7 18 -24 59 -37 92 -88 233 -284 643 -372
782 -15 24 -27 46 -27 51 0 5 -9 17 -20 27 -11 10 -20 22 -20 28 0 14 -124
191 -205 292 -64 80 -211 235 -276 290 -59 51 -146 115 -157 115 -6 0 -15 6
-19 13 -17 26 -153 94 -268 133 -38 14 -71 24 -73 23 -1 0 -15 2 -30 5 -70 14
-92 17 -162 22 -68 5 -949 12 -954 7z"/>
<path d="M9117 10554 c-1 -1 -30 -4 -64 -7 -352 -33 -678 -314 -928 -801 -66
-128 -159 -353 -195 -474 -21 -68 -21 -74 -6 -106 9 -19 16 -37 16 -41 0 -4 6
-21 14 -38 8 -18 32 -79 54 -137 22 -58 61 -158 86 -222 25 -64 46 -123 46
-129 0 -27 14 6 60 144 27 79 58 166 70 193 82 183 138 286 203 374 53 71 184
200 203 200 3 0 19 9 35 21 16 11 29 17 29 13 0 -3 6 -2 13 3 36 29 181 38
260 17 29 -8 60 -17 70 -19 44 -10 152 -81 210 -138 93 -91 152 -177 223 -327
20 -41 40 -83 45 -93 14 -27 274 -721 293 -782 2 -5 8 -21 13 -35 6 -14 21
-49 33 -79 41 -104 123 -278 151 -321 9 -14 18 -29 19 -35 2 -5 14 -27 26 -47
13 -21 24 -42 24 -47 0 -5 3 -11 8 -13 4 -1 22 -26 40 -54 18 -28 40 -61 50
-72 9 -11 24 -30 32 -43 8 -13 65 -73 125 -134 157 -159 255 -225 485 -328 37
-16 187 -63 230 -71 14 -3 36 -7 50 -10 14 -3 39 -8 55 -11 17 -3 44 -7 60
-10 17 -3 68 -8 115 -11 112 -8 1308 -8 1385 0 91 9 165 24 180 36 6 5 14 8
18 8 25 -1 241 101 257 122 3 3 22 16 42 29 111 67 318 283 426 443 18 26 32
50 32 55 0 5 -33 9 -72 9 -40 0 -95 4 -123 8 -27 4 -61 9 -75 11 -14 1 -50 10
-80 18 -292 81 -513 258 -738 594 -23 34 -47 74 -52 88 -5 14 -14 25 -20 25
-5 0 -10 7 -10 15 0 9 -11 33 -24 54 -38 60 -126 239 -221 451 -48 107 -95
213 -105 235 -11 22 -29 63 -40 90 -47 110 -192 406 -245 500 -211 379 -442
622 -714 752 -52 25 -99 46 -105 48 -6 1 -18 5 -26 8 -44 17 -119 35 -170 42
-14 2 -46 7 -72 13 -26 5 -206 10 -400 11 -504 4 -1299 6 -1301 5z"/>
</g>
</svg>
